<?xml version="1.0" encoding="utf-8"?>
<svg width="707px" height="175px" viewBox="0 0 707 175" version="1.1" xmlns:xlink="http://www.w3.org/1999/xlink" xmlns="http://www.w3.org/2000/svg">
  <desc>Created with Lunacy</desc>
  <g id="myLEDstock---logo-tagline-01">
    <path d="M234.255 119.996C234.255 119.996 80.6917 108.383 69.9297 111.071C69.9297 111.071 0.00018806 111.071 0.00018806 107.836L0.00018806 5.89275C-0.012182 4.34231 0.586143 2.85043 1.66353 1.74531C2.74091 0.640199 4.20909 0.0123867 5.74507 0L234.255 0C235.791 0.0123867 237.259 0.640199 238.336 1.74531C239.414 2.85043 240.012 4.34231 240 5.89275L240 114.401C240.001 115.921 239.389 117.376 238.306 118.431C237.222 119.486 235.76 120.051 234.255 119.996L234.255 119.996Z" transform="translate(64 9)" id="Path" fill="#BCBEC0" stroke="none" />
    <path d="M0.000222466 2.38978C-5.11542e-06 1.74515 0.265348 1.12778 0.736009 0.677915C1.20667 0.228048 1.84269 -0.0161357 2.4996 0.000828399L17.7362 0.000828399C19.0447 0.0657199 20.0833 1.1051 20.1234 2.38978L20.1234 69.5162L50.5645 69.5162C51.9095 69.5162 52.9998 70.5858 52.9998 71.9052L52.9998 85.5788C53.0084 86.2178 52.7556 86.8335 52.2979 87.2884C51.8403 87.7432 51.216 87.9992 50.5645 87.9992L2.4996 87.9992C1.83709 88.0163 1.19607 87.7679 0.724425 87.3111C0.252785 86.8544 -0.00872889 86.2289 0.000222466 85.5788L0.000222466 2.38978Z" transform="translate(85 16)" id="Path" fill="#FFFFFF" stroke="none" />
    <path d="M0 2.38985C0 1.06997 1.03509 0 2.31195 0L52.6728 0C53.9497 0 54.9848 1.06997 54.9848 2.38985L54.9848 16.1C54.9848 16.7339 54.7412 17.3417 54.3076 17.7899C53.8741 18.2381 53.286 18.4899 52.6728 18.4899L18.9975 18.4899L18.9975 34.0868L46.7257 34.0868C47.9858 34.1277 48.9981 35.1741 49.0376 36.4767L49.0376 50.1869C49.0417 50.8234 48.7999 51.4353 48.3659 51.8869C47.9318 52.3385 47.3415 52.5924 46.7257 52.5924L18.9975 52.5924L18.9975 69.5415L52.6881 69.5415C53.3012 69.5415 53.8893 69.7933 54.3228 70.2415C54.7564 70.6897 55 71.2975 55 71.9314L55 85.6101C55 86.93 53.9649 87.9999 52.6881 87.9999L2.32716 87.9999C1.71136 88.0041 1.11939 87.7542 0.682522 87.3056C0.245653 86.8569 -1.33271e-05 86.2467 0 85.6101L0 2.38985Z" transform="translate(145 16)" id="Path" fill="#FFFFFF" stroke="none" />
    <path d="M2.22159 0C0.965908 0.0592421 -0.0167201 1.1164 0.00140386 2.38857L0.00140386 85.5643C-0.0424701 86.8546 0.947364 87.9405 2.22159 88L32.5279 88C48.059 88 62.4103 79.6136 70.1758 66C77.9414 52.3864 77.9414 35.6136 70.1758 22C62.4103 8.38635 48.059 0 32.5279 0L2.22159 0ZM55.506 43.8743C55.506 58.2057 45.259 69.3786 31.2858 69.3786L19.362 69.3786L19.362 18.48L31.2858 18.48C45.3211 18.48 55.506 29.5429 55.506 43.8743Z" transform="translate(210 16)" id="Shape" fill="#FFFFFF" fill-rule="evenodd" stroke="none" />
    <path d="M8.75637e-14 6.05392C0.0578334 2.7287 2.74397 0.0493828 6.06932 0C9.36107 0.0752033 11.9925 2.76132 12 6.05392C11.9668 9.318 9.33331 11.9583 6.06932 12C2.78464 11.9527 0.114635 9.33693 0 6.05392" transform="translate(674 105)" id="Path" fill="#231F20" stroke="none" />
    <path d="M0.000682689 10.3268C-0.0402706 6.61019 1.76333 3.09284 4.8674 0.835739C5.15647 0.641393 5.51573 0.566211 5.86384 0.627214C6.21195 0.688218 6.51946 0.880247 6.71676 1.15982L10.5128 4.95623C10.8062 5.39351 10.7529 5.96396 10.383 6.34516C9.29535 7.28841 8.66695 8.61811 8.64722 10.0181C8.69144 12.8201 11.0873 15.0719 14.0331 15.08C15.441 15.1173 16.8058 14.6155 17.8213 13.6871C18.8369 12.7587 19.4183 11.4814 19.4351 10.1416C19.4655 8.4776 18.6947 6.89169 17.3424 5.83589C16.8929 5.50553 16.7806 4.90445 17.0829 4.44696L20.5382 0.650548C21.0736 0.0795437 21.7387 -0.229107 22.4038 0.203004C26.0697 2.38274 28.2057 6.28136 27.9843 10.3885C28.0655 17.8115 21.8195 23.8984 14.0168 24C6.22647 23.8153 0.0204561 17.7401 0.0493499 10.3268" transform="translate(661 78)" id="Path" fill="#231F20" stroke="none" />
    <path d="M19.4151 14.1463C19.3895 12.7203 18.7972 11.3631 17.769 10.3746C16.7409 9.38613 15.3615 8.84764 13.9355 8.87813C11.026 8.87813 8.6673 11.2368 8.6673 14.1463C8.6673 17.0559 11.026 19.4145 13.9355 19.4145C16.9019 19.4689 19.3529 17.1125 19.4151 14.1463M0.000768572 14.1463C-0.0585605 8.46511 3.32156 3.31142 8.55597 1.10216C13.7904 -1.1071 19.8409 0.0662353 23.8701 4.07191C27.8993 8.07757 29.108 14.1211 26.9294 19.3684C24.7508 24.6156 19.617 28.0258 13.9355 27.9997C6.29663 27.9385 0.106623 21.7847 0.000768572 14.1463" transform="translate(658 48)" id="Shape" fill="#231F20" stroke="none" />
    <path d="M1.77151 43.9533C1.46141 43.9619 1.16155 43.8367 0.942196 43.6069C0.722846 43.377 0.603298 43.0629 0.611571 42.738L0.611571 39.7932C0.640099 39.337 0.893788 38.9294 1.28077 38.7181L3.79396 37.6275C1.45855 35.413 0.0885695 32.2946 0.00186065 28.9958C-0.057677 25.7551 1.31438 22.6673 3.71961 20.6289C1.40989 18.3246 0.071935 15.1509 0.00186065 11.8102C0.00186065 3.89518 5.86103 0 12.8058 0L23.8401 0C24.4807 -2.76769e-15 25 0.544107 25 1.2153L25 8.0085C25 8.3294 24.8773 8.63694 24.6594 8.86238C24.4414 9.08783 24.1463 9.21238 23.8401 9.20821L12.4489 9.20821C10.01 9.20821 7.86862 10.5482 7.86862 13.4929C7.89312 15.8729 9.74592 17.7863 12.0176 17.7776L23.8401 17.7776C24.4807 17.7776 25 18.3217 25 18.9929L25 25.1473C25 25.8185 24.4807 26.3626 23.8401 26.3626L12.4489 26.3626C10.01 26.3626 7.86862 27.5156 7.86862 30.3824C7.83097 31.5801 8.26853 32.7405 9.07724 33.5878C9.88594 34.4351 10.9935 34.8936 12.1366 34.8541L23.8401 34.8541C24.4679 34.8855 24.9701 35.4116 25 36.0694L25 42.7847C25 43.4559 24.4807 44 23.8401 44L1.77151 43.9533Z" transform="translate(661 0)" id="Path" fill="#231F20" stroke="none" />
    <path d="M200.342 60.6179C200.342 46.7147 190.229 35.7158 176.297 35.7158L164.452 35.7158L164.452 85.6282L176.297 85.6282C190.214 85.6282 200.342 74.6601 200.342 60.6179M220.815 60.6179C220.815 84.5067 201.431 103.872 177.518 103.872L147.427 103.872C146.17 103.822 145.182 102.781 145.2 101.524L145.2 19.9588C145.182 18.7024 146.17 17.6608 147.427 17.6107L177.518 17.6107C201.334 17.6103 220.679 36.8258 220.815 60.6179M136.417 101.509C136.383 102.8 135.312 103.821 134.02 103.795L82.9913 103.795C81.6993 103.787 80.6563 102.738 80.6564 101.447L80.6564 19.9588C80.6563 18.668 81.6993 17.6192 82.9913 17.6107L134.02 17.6107C134.651 17.5983 135.261 17.8401 135.712 18.2818C136.163 18.7236 136.417 19.3279 136.417 19.9588L136.417 33.3831C136.417 34.0045 136.169 34.6001 135.728 35.038C135.286 35.4759 134.688 35.7199 134.066 35.7158L99.8617 35.7158L99.8617 51.0093L127.989 51.0093C129.262 51.0494 130.284 52.0706 130.324 53.3419L130.324 66.7199C130.324 68.0107 129.281 69.0595 127.989 69.068L99.8617 69.068L99.8617 85.7364L134.02 85.7364C134.651 85.7239 135.261 85.9658 135.712 86.4075C136.163 86.8492 136.417 87.4536 136.417 88.0844L136.417 101.509ZM72.2443 101.509C72.2192 102.773 71.1905 103.787 69.9249 103.795L23.5351 103.795C22.237 103.795 21.1847 102.744 21.1847 101.447L21.1847 19.9588C21.1847 18.662 22.237 17.6107 23.5351 17.6107L38.2097 17.6107C39.4848 17.6588 40.5049 18.6847 40.5447 19.9588L40.5447 85.7364L69.9249 85.7364C70.5468 85.7363 71.1431 85.9842 71.5814 86.425C72.0197 86.8658 72.2639 87.4631 72.2598 88.0844L72.2443 101.509ZM242 113.62L242 6.38002C242 2.85643 239.141 0 235.614 0L6.38633 0C2.85926 0 0 2.85643 0 6.38002L0 113.62C0 117.144 2.85926 120 6.38633 120L235.567 120C239.094 120 241.954 117.144 241.954 113.62" transform="translate(65 0)" id="Shape" fill="#0071BB" stroke="none" />
    <path d="M2.97815 69.9689C2.45797 69.9864 1.95377 69.7888 1.58574 69.4232C1.2177 69.0576 1.0188 68.5567 1.03645 68.04L1.03645 61.6622C1.02382 61.2001 1.19659 60.752 1.51672 60.4164C1.83684 60.0809 2.27808 59.8855 2.74327 59.8733L6.36046 59.8733C2.44219 56.3493 0.145215 51.3866 0.00296813 46.1378C-0.0946031 40.9758 2.21798 36.0595 6.26651 32.8222C2.39698 29.1621 0.144797 24.1281 0.00296813 18.8222C0.00296813 6.20667 9.83673 0 21.5182 0L40.0583 0C41.1307 0 42 0.863593 42 1.92889L42 12.7089C42 13.7742 41.1307 14.6378 40.0583 14.6378L20.9075 14.6378C16.8049 14.6378 13.219 16.7844 13.219 21.4667C13.2705 25.2507 16.3777 28.2889 20.1872 28.28L40.0583 28.28C41.1307 28.28 42 29.1436 42 30.2089L42 39.9778C42 41.0431 41.1307 41.9067 40.0583 41.9067L20.9075 41.9067C16.8049 41.9067 13.219 43.7422 13.219 48.3311C13.1575 50.2387 13.8933 52.0866 15.2518 53.4362C16.6104 54.7858 18.4705 55.5167 20.3908 55.4556L40.0583 55.4556C41.1136 55.4955 41.9598 56.3361 42 57.3844L42 68.0711C42 69.1364 41.1307 70 40.0583 70L2.97815 69.9689Z" transform="translate(0 50)" id="Path" fill="#231F20" stroke="none" />
    <path d="M2.60359 45.7806C2.03485 46.0961 1.33981 46.0697 0.796211 45.7121C0.252615 45.3545 -0.0508772 44.7239 0.00702037 44.0724L0.00702037 32.5461C0.0199467 31.8119 0.446617 31.1492 1.10674 30.8379L19.6951 23.1435L19.6951 22.9434L1.10674 14.9719C0.428021 14.6826 -0.00750457 14.0061 0.00702037 13.2637L0.00702037 1.8913C-0.0432843 1.24403 0.26532 0.621701 0.809231 0.273555C1.35314 -0.0745908 2.04342 -0.0916199 2.60359 0.229288L53.8018 23.005C54.4834 23.3067 54.9424 23.9648 54.9931 24.7131L54.9931 35.9932C55.0517 36.6652 54.7325 37.3137 54.1662 37.6736C53.6 38.0334 52.8816 38.0441 52.3049 37.7014L35.8702 30.684L2.60359 45.7806Z" transform="translate(3 0)" id="Path" fill="#231F20" stroke="none" />
    <path d="M0.676334 61.9273L6.53277 50.249C7.21932 48.9891 8.71026 48.4176 10.0528 48.8997C10.0528 48.8997 17.9382 53.3043 25.132 53.3043C25.9757 53.3719 26.8075 53.0707 27.4162 52.4774C28.0248 51.884 28.3517 51.0556 28.3138 50.2025C28.3138 48.512 27.3147 46.1547 18.7683 43.0994C5.70273 38.5398 0 30.9404 0 20.4563C0 9.11927 8.03915 0 26.1311 0C36.6758 0 44.7303 2.86916 48.404 5.24203C49.9411 6.25011 51.094 7.76999 50.0948 9.46046L43.9463 20.9681C43.1459 22.086 41.6895 22.5031 40.4263 21.9762C40.4263 21.9762 32.7407 18.0834 26.1926 18.0834C24.0099 18.0834 22.5035 18.5952 22.5035 20.4563C22.5035 22.3174 24.348 23.8373 30.0354 25.8689C43.6082 30.5216 53 36.0118 53 49.5356C53 61.3689 43.6082 71 24.6862 71C13.6189 71 5.24159 68.1308 1.89066 65.4168C0.722448 64.4087 -0.12297 63.4006 0.722448 61.8807" transform="translate(320 49)" id="Path" fill="#231F20" stroke="none" />
    <path d="M0 21.6925L0 3.16891C0.0550124 1.44233 1.4268 0.0556114 3.1348 5.75588e-07L20.7927 5.75588e-07C21.6147 -0.000508535 22.4016 0.336736 22.9727 0.934315C23.5439 1.53189 23.8502 2.33848 23.8215 3.16891L23.8215 21.6925L36.0427 21.6925C36.8829 21.6622 37.6978 21.9863 38.2923 22.5873C38.8868 23.1883 39.2074 24.012 39.1775 24.8614L39.1775 39.7108C39.1775 40.5513 38.8472 41.3573 38.2593 41.9516C37.6714 42.5459 36.8741 42.8797 36.0427 42.8797L23.7609 42.8797L23.7609 63.7455C23.7609 67.4043 26.2445 67.7411 28.2284 67.7411L38.4203 67.7411C41.6611 67.7411 41.9942 69.8231 41.9942 72.0122L41.9942 86.1575C42.0978 88.0305 40.7946 89.6838 38.9654 90C38.9654 90 28.1072 90 19.8537 90C7.31454 90 0.0454319 81.9935 0.0454319 66.8073L0.0454319 42.8797" transform="translate(384 30)" id="Path" fill="#231F20" stroke="none" />
    <path d="M35.3286 49.1944C38.9562 49.1292 42.409 47.6312 44.9259 45.0304C47.4428 42.4296 48.8172 38.9395 48.7463 35.3294C48.7463 27.9546 42.739 21.9762 35.3286 21.9762C27.9182 21.9762 21.9109 27.9546 21.9109 35.3294C21.84 38.9395 23.2144 42.4296 25.7313 45.0304C28.2482 47.6312 31.7009 49.1292 35.3286 49.1944M35.3286 0C55.0294 1.10198e-14 71 15.8939 71 35.5C71 55.1061 55.0294 71 35.3286 71C15.9734 71 0 54.7776 0 35.3294C0.184183 15.9602 15.867 0.277051 35.3286 2.20396e-14" transform="translate(431 49)" id="Shape" fill="#231F20" stroke="none" />
    <path d="M36.9431 0.0620358C46.9752 -0.0960281 56.4976 4.41434 62.646 12.2366C63.7065 13.7576 63.3198 15.8383 61.7814 16.8893L51.5002 26.5203C50.3135 27.2472 48.783 27.1145 47.743 26.1946C43.9251 22.0965 37.9367 20.7535 32.6983 22.8207C27.4598 24.8879 24.0622 29.9348 24.1623 35.5C24.0609 39.0732 25.4193 42.5367 27.9322 45.112C30.445 47.6874 33.9015 49.1584 37.5247 49.1944C43.5142 49.1944 46.4382 46.6509 49.1736 43.9524C50.0592 42.7904 51.7006 42.4935 52.9465 43.27L63.2276 52.0636C64.7997 53.4284 65.6329 55.1654 64.4224 56.8093C58.1342 66.2698 49.1736 71 36.833 71C17.3082 71 0 55.7857 0 35.5C0 15.5555 17.4654 0 37.0059 0" transform="translate(508 49)" id="Path" fill="#231F20" stroke="none" />
    <path d="M0 3.17417C0.0557677 1.44472 1.4464 0.0557032 3.17784 0L21.7537 0C23.4851 0.0557032 24.8757 1.44472 24.9315 3.17417L24.9315 75.5513L45.2421 52.1514C46.2781 50.9024 47.8094 50.1684 49.4331 50.1427L68.1625 50.1427C69.4451 50.0124 70.6725 50.6964 71.2353 51.855C71.7981 53.0135 71.5763 54.3999 70.6802 55.3256L48.5274 80.9029L75.3011 111.985C76.0617 112.909 76.2152 114.19 75.6942 115.267C75.1732 116.344 74.0728 117.021 72.8755 117L50.2007 117C49.2351 116.864 48.3486 116.391 47.6984 115.665L24.9315 86.5306L24.9315 113.825C24.8757 115.555 23.4851 116.944 21.7537 117L3.17784 117C1.4464 116.944 0.0557677 115.555 8.72655e-14 113.825L0 3.17417Z" transform="translate(581 0)" id="Path" fill="#231F20" stroke="none" />
    <path d="M51.1232 85.5893L51.1232 71.8811C51.1152 70.5887 50.1006 69.5359 48.8304 69.5019L19.3958 69.5019L19.3958 2.39499C19.3556 1.08961 18.3245 0.0409508 17.0411 0L2.35476 0C1.05426 5.59783e-15 0 1.07227 0 2.39499L0 85.5893C0.00851628 86.9058 1.06029 87.9685 2.35476 87.9685L48.8304 87.9685C50.1248 87.9685 51.1766 86.9058 51.1851 85.5893M115.461 85.5893L115.461 71.8811C115.452 70.5646 114.401 69.5019 113.106 69.5019L78.8226 69.5019L78.8226 52.5321L107.002 52.5321C108.297 52.5235 109.342 51.4537 109.342 50.1372L109.342 36.4448C109.301 35.1481 108.277 34.1065 107.002 34.0655L78.8226 34.0655L78.8226 18.4981L113.044 18.4981C113.681 18.5153 114.297 18.2679 114.75 17.813C115.203 17.3581 115.454 16.7349 115.445 16.0874L115.445 2.39499C115.445 1.07227 114.391 5.59783e-15 113.091 5.59783e-15L61.9675 5.59783e-15C60.673 0.00866175 59.6282 1.0784 59.6282 2.39499L59.6282 85.5893C59.6282 86.9033 60.6755 87.9685 61.9675 87.9685L113.091 87.9685C114.385 87.9685 115.437 86.9058 115.445 85.5893M179.489 43.8661C179.489 58.1887 169.357 69.3758 155.383 69.3758L143.532 69.3758L143.532 18.4981L155.383 18.4981C169.326 18.4981 179.489 29.6852 179.489 43.8976M200 43.8976C199.864 19.6303 180.483 0.0311168 156.623 0.031513L126.476 0.031513C125.223 0.0909142 124.242 1.15091 124.26 2.4265L124.26 85.6208C124.242 86.8935 125.225 87.9489 126.476 88L156.623 88C180.579 88 200 68.2476 200 43.8818" transform="translate(86 16)" id="Shape" fill="#FFFFFF" stroke="none" />
    <path d="M0 1.43541L0 0L7.57735 0L7.57735 1.43541L4.76247 1.43541L4.76247 8.91388L2.83009 8.91388L2.83009 1.43541L0 1.43541ZM13.4049 6.12919L15.109 0L18 0L18 8.95694L16.2198 8.95694L16.2198 1.86603L14.3178 8.95694L12.4615 8.95694L10.5748 1.86603L10.5748 9L8.79459 9L8.79459 0L11.6703 0L13.4049 6.12919Z" transform="translate(689 3)" id="Shape" fill="#000000" fill-rule="evenodd" stroke="none" />
    <path d="M566.247 24.7518C568.006 26.8177 570.519 27.999 573.157 28C578.243 28 581.119 24.7518 581.057 20.4479C580.98 16.4851 578.29 14.6011 574.734 12.5872C572.4 11.2879 570.977 9.85871 570.947 7.71488C570.945 6.38523 571.461 5.11283 572.375 4.19278C573.289 3.27272 574.521 2.78494 575.785 2.84256C577.367 2.90559 578.892 3.47199 580.16 4.46666C580.609 4.84021 580.98 4.61283 581.366 4.10936L581.753 3.4922C582.232 2.76135 581.892 2.33908 581.753 2.19291C580.132 0.839026 578.102 0.141653 576.033 0.227741C570.019 0.227741 568.164 4.77525 568.21 8.00722C568.21 11.5478 570.282 13.2369 573.234 15.0071C576.187 16.7774 578.058 18.2553 578.104 20.7078C577.997 23.3159 575.951 25.3714 573.466 25.3689C571.404 25.3289 569.461 24.3441 568.148 22.6729C567.746 22.2182 567.422 22.4131 566.989 22.8678L566.417 23.5175C566.248 23.6492 566.149 23.857 566.149 24.0778C566.149 24.2985 566.248 24.5063 566.417 24.6381M540.538 26.8306C540.511 27.0148 540.562 27.2022 540.678 27.343C540.794 27.4838 540.964 27.5637 541.141 27.5615L542.316 27.5615C542.722 27.5596 543.068 27.2511 543.135 26.8306L545.47 5.96084L545.47 5.96084L557.667 27.9513L558.517 27.9513C558.914 27.9646 559.259 27.6653 559.321 27.2529L562.413 1.26717C562.436 1.07843 562.379 0.888711 562.257 0.748085C562.135 0.607458 561.96 0.53006 561.779 0.536321L560.604 0.536321C560.193 0.524113 559.84 0.83935 559.785 1.26717L557.373 21.7472L557.373 21.7472L545.222 0.146535L544.295 0.146535C543.901 0.134207 543.561 0.435036 543.506 0.844902L540.538 26.8306ZM522.435 25.2065C517.272 25.2065 513.67 20.2043 514.381 14.0814C515.092 7.9585 519.869 2.87504 525.032 2.87504C530.196 2.87504 533.844 7.9585 533.102 14.0814C532.36 20.2043 527.614 25.2065 522.435 25.2065M522.188 27.9026C529.191 27.9026 534.803 21.7797 535.715 14.0814C536.627 6.38311 531.742 0.179018 525.28 0.179018C518.354 0.179018 512.711 6.36687 511.768 14.0814C510.825 21.7959 515.741 27.9026 522.188 27.9026M501.163 26.7819C501.126 26.9567 501.165 27.1397 501.27 27.2811C501.375 27.4224 501.534 27.5073 501.704 27.5128L503.25 27.5128C503.615 27.4745 503.902 27.1665 503.93 26.7819L506.914 1.29965C506.956 1.1269 506.922 0.943217 506.819 0.800854C506.717 0.658492 506.558 0.573038 506.388 0.568804L504.842 0.568804C504.477 0.607029 504.19 0.91504 504.162 1.29965L501.163 26.7819ZM487.358 26.7819C487.336 26.957 487.383 27.1338 487.488 27.2717C487.593 27.4096 487.747 27.4966 487.914 27.5128L489.46 27.5128C489.827 27.4655 490.118 27.1661 490.171 26.7819L492.939 3.1349L498.55 3.1349C498.928 3.11185 499.231 2.79996 499.262 2.40405L499.401 1.29965C499.444 1.12416 499.407 0.937585 499.301 0.79452C499.195 0.651455 499.032 0.568083 498.86 0.568804L484.792 0.568804C484.426 0.607029 484.14 0.91504 484.111 1.29965L483.972 2.40405C483.93 2.5768 483.965 2.76048 484.067 2.90284C484.169 3.04521 484.328 3.13066 484.498 3.1349L490.11 3.1349L487.358 26.7819ZM460.227 17.5895C459.547 23.4363 462.886 27.9026 467.833 27.9026C473.738 27.9026 477.186 23.4363 477.85 17.5895L479.752 1.34838C479.788 1.17625 479.751 0.995929 479.65 0.855213C479.549 0.714498 479.394 0.627591 479.226 0.617527L477.68 0.617527C477.309 0.642163 477.015 0.957691 477 1.34838L475.099 17.4758C474.619 21.601 471.899 25.2228 468.157 25.2228C464.416 25.2228 462.592 21.7959 463.102 17.4108L464.973 1.34838C465.015 1.17563 464.98 0.99194 464.878 0.849578C464.776 0.707215 464.617 0.621761 464.447 0.617527L462.901 0.617527C462.531 0.663281 462.234 0.961599 462.175 1.34838L460.227 17.5895ZM442.789 26.7819C442.757 26.9587 442.8 27.1411 442.907 27.2815C443.014 27.422 443.174 27.5064 443.345 27.5128L454.862 27.5128C455.234 27.4768 455.531 27.1717 455.573 26.7819L455.697 25.6775C455.728 25.5061 455.689 25.3287 455.589 25.1894C455.489 25.0501 455.337 24.9619 455.172 24.9467L445.896 24.9467L448.694 1.29965C448.716 1.12197 448.667 0.942769 448.558 0.804401C448.45 0.666033 448.292 0.580783 448.122 0.568804L446.576 0.568804C446.204 0.604736 445.907 0.909844 445.865 1.29965L442.789 26.7819ZM424.686 25.1578C419.522 25.1578 415.92 20.1556 416.616 14.0327C417.312 7.90977 422.119 2.82631 427.283 2.82631C432.446 2.82631 436.095 7.90977 435.353 14.0327C434.611 20.1556 429.849 25.1578 424.686 25.1578M424.438 27.8538C431.441 27.8538 437.053 21.7309 437.95 14.0327C438.846 6.33439 433.992 0.130294 427.53 0.130294C420.604 0.130294 414.962 6.31815 414.019 14.0327C413.076 21.7472 417.992 27.8538 424.438 27.8538M394.076 24.6056C395.835 26.6716 398.348 27.8528 400.987 27.8538C406.073 27.8538 408.948 24.6056 408.886 20.3017C408.809 16.3389 406.119 14.4549 402.563 12.441C400.229 11.1418 398.807 9.71254 398.776 7.56871C398.775 6.242 399.289 4.97223 400.199 4.05268C401.109 3.13313 402.337 2.64332 403.599 2.69639C405.185 2.76022 406.716 3.32637 407.99 4.32049C408.438 4.69404 408.809 4.46666 409.195 3.96319L409.597 3.34603C410.046 2.61518 409.721 2.19291 409.597 2.04674C407.976 0.692857 405.947 -0.00451687 403.877 0.081571C397.864 0.081571 396.009 4.62908 396.055 7.86105C396.055 11.4016 398.127 13.0907 401.079 14.861C404.032 16.6312 405.903 18.1092 405.949 20.5616C405.841 23.1697 403.796 25.2252 401.311 25.2228C399.249 25.1828 397.306 24.1979 395.993 22.5268C395.591 22.072 395.267 22.2669 394.834 22.7216L394.246 23.3713C394.083 23.5068 393.988 23.7132 393.988 23.9316C393.988 24.15 394.083 24.3564 394.246 24.4919M361.565 15.8354C361.673 22.4455 366.311 27.8051 371.954 27.8051C374.933 27.7646 377.852 26.9141 380.426 25.3365C380.633 25.2042 380.766 24.9737 380.781 24.7193L381.802 15.7542C381.814 15.5947 381.766 15.4365 381.667 15.3145C381.569 15.1925 381.428 15.117 381.276 15.1046L375.169 15.1046C374.786 15.1128 374.475 15.4328 374.458 15.8354L374.288 17.1347C374.251 17.3035 374.288 17.4812 374.391 17.6172C374.493 17.7532 374.649 17.8327 374.814 17.8331L378.447 17.8331L377.798 23.3388C376.021 24.3719 374.03 24.9297 372 24.9629C367.502 24.9629 364.41 20.4804 364.271 15.3644C364.162 8.62438 369.001 2.84256 374.582 2.84256C376.713 2.95395 378.709 3.96765 380.116 5.65226C380.503 6.09077 380.719 6.15574 381.075 5.84716L382.343 4.74276C382.494 4.61282 382.59 4.42405 382.607 4.21921C382.625 4.01438 382.563 3.81081 382.435 3.65461C380.531 1.33629 377.744 0.0271287 374.829 0.081571C366.914 0.081571 361.055 7.16268 361.194 15.8354M334.48 26.6845C334.448 26.8667 334.495 27.0547 334.609 27.1964C334.723 27.3381 334.891 27.4185 335.068 27.4153L336.243 27.4153C336.652 27.4147 337.003 27.1075 337.078 26.6845L339.412 5.81467L339.412 5.81467L351.625 27.8051L352.537 27.8051C352.934 27.8184 353.279 27.5191 353.341 27.1067L356.433 1.121C356.456 0.932263 356.398 0.742541 356.276 0.601915C356.154 0.461288 355.98 0.38389 355.799 0.390152L354.624 0.390152C354.21 0.376982 353.852 0.690681 353.789 1.121L351.378 21.601L351.378 21.601L339.211 0.000365607L338.299 0.000365607C337.905 -0.0119632 337.566 0.288867 337.511 0.698732L334.48 26.6845ZM323.659 26.6845C323.622 26.8566 323.66 27.0369 323.761 27.1776C323.862 27.3183 324.017 27.4053 324.185 27.4153L325.73 27.4153C326.099 27.3836 326.389 27.0721 326.411 26.6845L329.41 1.20221C329.446 1.03008 329.409 0.849759 329.308 0.709044C329.207 0.568328 329.052 0.481421 328.884 0.471357L327.338 0.471357C326.973 0.509583 326.686 0.817593 326.658 1.20221L323.659 26.6845ZM309.838 26.6845C309.817 26.8595 309.864 27.0364 309.969 27.1742C310.074 27.3121 310.227 27.3991 310.395 27.4153L311.941 27.4153C312.309 27.3645 312.603 27.0686 312.667 26.6845L315.419 3.03745L321.031 3.03745C321.414 3.02232 321.726 2.70838 321.757 2.3066L321.881 1.20221C321.924 1.02946 321.889 0.84577 321.786 0.703408C321.684 0.561045 321.525 0.475591 321.355 0.471357L307.303 0.471357C306.938 0.509583 306.651 0.817593 306.623 1.20221L306.499 2.3066C306.45 2.4799 306.482 2.66745 306.586 2.81173C306.69 2.95602 306.853 3.03982 307.025 3.03745L312.714 3.03745L309.838 26.6845ZM280.326 26.6845C280.305 26.8622 280.354 27.0414 280.462 27.1797C280.57 27.3181 280.728 27.4033 280.898 27.4153L282.444 27.4153C282.816 27.3907 283.109 27.0752 283.125 26.6845L284.5 15.0234L297.486 15.0234L296.095 26.6845C296.068 26.8631 296.116 27.0451 296.225 27.1847C296.334 27.3243 296.495 27.4082 296.667 27.4153L298.213 27.4153C298.578 27.3771 298.865 27.0691 298.893 26.6845L301.877 1.20221C301.913 1.03008 301.876 0.849759 301.775 0.709044C301.674 0.568328 301.519 0.481421 301.351 0.471357L299.805 0.471357C299.43 0.506014 299.128 0.809822 299.079 1.20221L297.765 12.441L284.887 12.441L286.247 1.20221C286.274 1.02363 286.227 0.841613 286.117 0.701994C286.008 0.562375 285.847 0.478453 285.675 0.471357L284.129 0.471357C283.763 0.518615 283.471 0.817986 283.418 1.20221L280.326 26.6845ZM254.571 15.8354C254.679 22.4455 259.317 27.8051 264.96 27.8051C267.934 27.7633 270.848 26.9128 273.416 25.3365C273.63 25.2108 273.765 24.9764 273.772 24.7193L274.792 15.7542C274.809 15.5964 274.765 15.438 274.668 15.3154C274.572 15.1929 274.433 15.1168 274.282 15.1046L268.485 15.1046C268.098 15.1122 267.782 15.4302 267.758 15.8354L267.603 17.1347C267.559 17.3042 267.594 17.4858 267.698 17.6237C267.802 17.7616 267.962 17.8394 268.129 17.8331L271.762 17.8331L271.113 23.3388C269.334 24.3663 267.345 24.9237 265.315 24.9629C260.801 24.9629 257.725 20.4804 257.586 15.3644C257.478 8.62438 262.332 2.84256 267.897 2.84256C270.031 2.95695 272.032 3.96973 273.447 5.65226C273.818 6.09077 274.05 6.15574 274.405 5.84716L275.673 4.74276C275.981 4.46727 276.023 3.98323 275.766 3.65461C273.854 1.33744 271.063 0.0290678 268.144 0.081571C260.229 0.081571 254.386 7.16268 254.525 15.8354M243.935 26.6845C243.893 26.8545 243.926 27.0355 244.025 27.1772C244.124 27.3189 244.278 27.4063 244.445 27.4153L246.069 27.4153C246.434 27.3771 246.721 27.0691 246.749 26.6845L249.732 1.20221C249.775 1.02946 249.74 0.84577 249.638 0.703408C249.535 0.561045 249.377 0.475591 249.207 0.471357L247.661 0.471357C247.293 0.503032 247.003 0.814629 246.981 1.20221L243.935 26.6845ZM226.729 26.6845C226.702 26.8631 226.75 27.0451 226.859 27.1847C226.968 27.3243 227.129 27.4082 227.301 27.4153L238.803 27.4153C239.181 27.3867 239.486 27.0798 239.529 26.6845L239.653 25.5801C239.684 25.4086 239.645 25.2313 239.545 25.092C239.444 24.9527 239.293 24.8645 239.127 24.8492L229.852 24.8492L232.65 1.20221C232.672 1.02453 232.622 0.845322 232.514 0.706954C232.406 0.568586 232.248 0.483336 232.078 0.471357L230.532 0.471357C230.16 0.507289 229.863 0.812397 229.821 1.20221L226.729 26.6845ZM195.717 24.768L198.315 3.34603L203.076 3.34603C207.714 3.34603 210.806 7.19517 210.929 12.506C211.053 19.7495 206.292 25.0279 200.51 25.0279L195.717 24.768ZM192.626 26.6845C192.584 26.8519 192.615 27.0302 192.71 27.1713C192.806 27.3124 192.956 27.4017 193.12 27.4153L200.603 27.4153C208.116 27.4153 214.006 20.5291 213.867 12.1649C213.759 6.15574 209.492 0.471357 203.741 0.471357L196.46 0.471357C196.088 0.502099 195.793 0.812011 195.764 1.20221L192.626 26.6845ZM165.649 26.6845C165.622 26.8686 165.673 27.056 165.789 27.1968C165.905 27.3376 166.075 27.4175 166.252 27.4153L167.427 27.4153C167.835 27.4202 168.185 27.1085 168.246 26.6845L170.581 5.81467L170.658 5.81467L182.855 27.8051L183.783 27.8051C184.177 27.8174 184.516 27.5166 184.571 27.1067L187.663 1.121C187.686 0.932263 187.629 0.742541 187.507 0.601915C187.385 0.461288 187.21 0.38389 187.029 0.390152L185.947 0.390152C185.533 0.376982 185.175 0.690681 185.112 1.121L182.701 21.601L182.701 21.601L170.488 0.341428L169.576 0.341428C169.179 0.328107 168.834 0.627432 168.772 1.0398L165.649 26.6845ZM144.825 26.6845C144.783 26.8572 144.818 27.0409 144.92 27.1833C145.023 27.3256 145.181 27.4111 145.351 27.4153L158.414 27.4153C158.792 27.3923 159.095 27.0804 159.125 26.6845L159.249 25.5801C159.297 25.4095 159.267 25.225 159.167 25.0814C159.067 24.9379 158.908 24.852 158.739 24.8492L147.84 24.8492L148.999 15.1046L158.275 15.1046C158.646 15.0799 158.94 14.7644 158.955 14.3737L159.094 13.2531C159.131 13.0783 159.092 12.8953 158.987 12.754C158.883 12.6126 158.724 12.5277 158.553 12.5222L149.278 12.5222L150.406 3.11865L161.228 3.11865C161.611 3.10352 161.923 2.78959 161.954 2.38781L162.078 1.28341C162.127 1.11011 162.095 0.922565 161.991 0.778278C161.887 0.633992 161.724 0.550186 161.552 0.552563L148.474 0.552563C148.108 0.590788 147.822 0.898799 147.794 1.28341L144.825 26.6845ZM132.458 15.4781L139.569 15.4781C139.934 15.4599 140.238 15.1753 140.296 14.796L140.389 14.0651C140.389 13.6266 140.234 13.3343 139.863 13.3343L132.86 13.3343C132.476 13.3494 132.164 13.6634 132.133 14.0651L132.04 14.796C132.007 14.9681 132.051 15.1469 132.16 15.2803C132.268 15.4137 132.43 15.4867 132.597 15.4781M113.52 25.1091C108.357 25.1091 104.755 20.1068 105.45 13.9839C106.146 7.86105 110.954 2.77759 116.117 2.77759C121.281 2.77759 124.929 7.86105 124.187 13.9839C123.445 20.1068 118.684 25.1091 113.52 25.1091M113.273 27.8051C120.276 27.8051 125.888 21.6822 126.784 13.9839C127.681 6.28567 122.811 0.081571 116.365 0.081571C109.439 0.081571 103.781 6.26943 102.853 13.9839C101.926 21.6985 106.811 27.8051 113.273 27.8051M89.4654 26.6845C89.4437 26.8595 89.4908 27.0364 89.5958 27.1742C89.7008 27.3121 89.8546 27.3991 90.022 27.4153L91.5679 27.4153C91.9347 27.3681 92.226 27.0687 92.279 26.6845L95.0463 3.03745L100.658 3.03745C101.035 3.0144 101.339 2.70252 101.369 2.3066L101.508 1.20221C101.551 1.02946 101.516 0.84577 101.413 0.703408C101.311 0.561045 101.152 0.475591 100.983 0.471357L87.0074 0.471357C86.642 0.509583 86.3554 0.817593 86.3272 1.20221L86.1881 2.3066C86.1449 2.48209 86.1817 2.66867 86.2876 2.81173C86.3935 2.9548 86.5566 3.03817 86.7291 3.03745L92.3254 3.03745L89.4654 26.6845ZM74.9491 15.4781L81.9058 15.4781C82.2711 15.4599 82.5743 15.1753 82.6324 14.796L82.7252 14.0651C82.782 13.8914 82.7529 13.6994 82.6475 13.5528C82.5421 13.4062 82.3742 13.3243 82.1996 13.3343L75.1965 13.3343C74.8161 13.3502 74.5088 13.666 74.4854 14.0651L74.3771 14.796C74.349 14.97 74.3972 15.148 74.5082 15.2804C74.6192 15.4129 74.7813 15.4855 74.9491 15.4781M50.9099 24.768L53.4452 3.08617L58.2067 3.08617C62.8445 3.08617 65.9363 6.93531 66.06 12.2461C66.1837 19.4897 61.4222 24.768 55.6404 24.768L50.9099 24.768ZM47.818 26.6845C47.7702 26.8524 47.7987 27.034 47.8954 27.1768C47.9921 27.3197 48.146 27.4077 48.3127 27.4153L55.795 27.4153C63.3083 27.4153 69.1983 20.5291 69.0591 12.1649C68.9509 6.15574 64.6841 0.471357 58.9333 0.471357L51.6055 0.471357C51.2341 0.502099 50.9391 0.812011 50.9099 1.20221L47.818 26.6845ZM20.8414 26.6845C20.8141 26.8686 20.8654 27.056 20.9816 27.1968C21.0977 27.3376 21.267 27.4175 21.4444 27.4153L22.6193 27.4153C23.0276 27.4202 23.377 27.1085 23.4386 26.6845L25.773 5.81467L25.8503 5.81467L38.0477 27.8051L39.0835 27.8051C39.4773 27.8174 39.8169 27.5166 39.8719 27.1067L42.9638 1.121C42.9865 0.932263 42.9293 0.742542 42.8074 0.601915C42.6854 0.461288 42.5109 0.383891 42.3299 0.390152L41.155 0.390152C40.7442 0.377943 40.3908 0.69318 40.3357 1.121L37.924 21.601L37.924 21.601L25.7575 0.000365607L24.83 0.000365607C24.4386 -0.00471994 24.1029 0.292614 24.0415 0.698732L20.8414 26.6845ZM0.0177174 26.6845C-0.0247905 26.8572 0.0101135 27.0409 0.112499 27.1833C0.214884 27.3256 0.373543 27.4111 0.543335 27.4153L13.6065 27.4153C13.9839 27.3923 14.2874 27.0804 14.3176 26.6845L14.4413 25.5801C14.4905 25.4068 14.4582 25.2192 14.3545 25.0749C14.2507 24.9307 14.0878 24.8469 13.9157 24.8492L3.09413 24.8492L4.25358 15.1046L13.5292 15.1046C13.9006 15.0799 14.1943 14.7644 14.2094 14.3737L14.3485 13.2531C14.3855 13.0783 14.3463 12.8953 14.2416 12.754C14.137 12.6126 13.9778 12.5277 13.8074 12.5222L4.53184 12.5222L5.64492 3.11865L16.4665 3.11865C16.8499 3.10352 17.162 2.78959 17.193 2.38781L17.3167 1.28341C17.3592 1.11066 17.3243 0.926976 17.2219 0.784613C17.1196 0.642251 16.9609 0.556796 16.7911 0.552563L3.80526 0.552563C3.43384 0.583305 3.13885 0.893217 3.10959 1.28341L0.0177174 26.6845Z" transform="translate(60 147)" id="Shape" fill="#0071BB" stroke="none" />
  </g>
</svg>